<svg width="172" height="34" viewBox="0 0 172 34" fill="none" xmlns="http://www.w3.org/2000/svg">
<path d="M50.0627 1.50928C46.177 1.80417 42.7944 3.27865 39.9496 6.03678C36.7404 9.1245 35.1272 12.8367 35.1272 17.1387C35.1272 22.0478 36.8965 26.0029 40.4179 29.0386C43.2975 31.5018 46.524 32.8028 50.0627 33.0457V1.50928Z" fill="#F3F3F3"/>
<path d="M28.7089 7.23375C26.766 5.01336 24.8059 3.41746 22.811 2.4287C20.712 1.43993 18.4569 0.954224 16.0457 0.954224C11.6223 0.954224 7.85808 2.48074 4.77036 5.49907C4.77036 5.49907 4.66628 5.60315 4.61424 5.65519C2.01222 8.2572 0.433669 11.4664 0 15.0398H4.73566C5.09994 12.5939 6.1234 10.4949 7.89277 8.74291C10.1132 6.48784 12.8539 5.3603 16.1151 5.3603C19.7579 5.3603 22.8457 7.04293 25.3783 10.4255L28.7089 7.25109V7.23375Z" fill="#F3F3F3"/>
<path d="M30.4435 17.3296V16.3235H17.5376V20.6775H25.3263C25.1181 22.8285 24.0773 24.6846 22.2385 26.2458C20.3824 27.7897 18.3008 28.5529 15.9937 28.5529C13.2703 28.5529 10.7376 27.5295 8.41317 25.4652C6.10606 23.4183 4.90913 20.8163 4.75301 17.7286H0C0.156121 21.7704 1.66529 25.2918 4.59689 28.2234C7.7193 31.3284 11.4489 32.8723 15.8202 32.8723C20.1916 32.8723 23.9732 31.259 26.8875 28.0672C28.1711 26.6448 29.0732 25.1009 29.6109 23.453C29.8711 22.5857 30.0793 21.6663 30.218 20.6775C30.3568 19.6367 30.4435 18.5265 30.4435 17.3469" fill="#F3F3F3"/>
<path d="M67.687 17.3295C67.687 12.9581 66.0911 9.21123 62.8993 6.08882C60.0371 3.27865 56.6371 1.78683 52.7515 1.50928V5.86331C55.4229 6.12351 57.73 7.16432 59.6208 9.07246C61.8412 11.2755 62.9514 14.0163 62.9514 17.2775C62.9514 20.5387 61.8238 23.2448 59.5861 25.4825C57.6779 27.3559 55.3882 28.3967 52.7515 28.6743V33.011C56.6371 32.6987 60.0371 31.2416 62.882 28.5008C66.0738 25.4304 67.687 21.7009 67.687 17.2948" fill="#F3F3F3"/>
<path d="M90.4806 9.61023L87.6878 11.2582C87.1674 10.3561 86.6644 9.76635 86.196 9.4888C85.7103 9.17656 85.0685 9.02044 84.2879 9.02044C83.3338 9.02044 82.5358 9.29799 81.9114 9.83574C81.2869 10.3735 80.9746 11.0327 80.9746 11.848C80.9746 12.9582 81.8073 13.8602 83.4552 14.5367L85.7276 15.4734C87.5837 16.2193 88.9368 17.1387 89.7868 18.2142C90.6368 19.2897 91.0704 20.6081 91.0704 22.1693C91.0704 24.2682 90.3766 26.0029 88.9715 27.356C87.5664 28.7263 85.8144 29.4202 83.7328 29.4202C81.7552 29.4202 80.1246 28.8304 78.841 27.6682C77.5747 26.506 76.7767 24.858 76.4645 22.7244L79.9512 21.9611C80.1073 23.2968 80.3848 24.2162 80.7838 24.7366C81.495 25.7254 82.5185 26.2111 83.8889 26.2111C84.9644 26.2111 85.8491 25.8468 86.5603 25.1356C87.2715 24.4244 87.6184 23.505 87.6184 22.4121C87.6184 21.9611 87.549 21.5621 87.4276 21.1979C87.3062 20.8336 87.1154 20.4866 86.8552 20.1744C86.595 19.8622 86.2654 19.5673 85.8491 19.3071C85.4327 19.0295 84.947 18.7867 84.3746 18.5265L82.1716 17.6071C79.0491 16.2887 77.4879 14.3632 77.4879 11.8306C77.4879 10.1133 78.1471 8.69085 79.4481 7.52862C80.7491 6.36639 82.3797 5.79395 84.3399 5.79395C86.9593 5.79395 89.0235 7.0776 90.498 9.62758L90.4806 9.61023Z" fill="#F3F3F3"/>
<path d="M101.513 9.4367V28.9865H98.0785V9.4367H92.8398V6.21021H106.735V9.4367H101.513Z" fill="#F3F3F3"/>
<path d="M121.774 9.4367H112.632V14.9183H121.497V18.1448H112.632V25.76H121.774V28.9865H109.198V6.21021H121.774V9.4367Z" fill="#F3F3F3"/>
<path d="M139.069 23.453H129.32L126.787 28.9866H123.075L134.351 4.77051L145.227 28.9866H141.463L139.069 23.453ZM137.664 20.2265L134.281 12.4725L130.742 20.2265H137.664Z" fill="#F3F3F3"/>
<path d="M146.667 28.9865L151.454 4.49292L159.278 22.2039L167.379 4.49292L171.681 28.9865H168.159L165.956 15.2306L159.208 30.0273L152.651 15.2132L150.205 28.9865H146.649H146.667Z" fill="#F3F3F3"/>
</svg>
