<svg width="163" height="30" viewBox="0 0 163 30" fill="none" xmlns="http://www.w3.org/2000/svg">
<rect x="70" y="7" width="93" height="16" fill="#FFEA00"/>
<path d="M84.948 7.58055L82.3656 9.11281C81.8844 8.2741 81.4192 7.72571 80.9862 7.46765C80.537 7.17733 79.9436 7.03216 79.2217 7.03216C78.3395 7.03216 77.6017 7.29023 77.0243 7.79023C76.4468 8.29023 76.1581 8.90313 76.1581 9.66119C76.1581 10.6935 76.928 11.5322 78.4518 12.1612L80.5531 13.0322C82.2694 13.7257 83.5205 14.5805 84.3064 15.5805C85.0924 16.5805 85.4934 17.8064 85.4934 19.258C85.4934 21.2096 84.8518 22.8225 83.5526 24.0805C82.2533 25.3547 80.6333 25.9999 78.7085 25.9999C76.8799 25.9999 75.3721 25.4515 74.1852 24.3709C73.0143 23.2902 72.2764 21.758 71.9877 19.7741L75.2117 19.0644C75.3561 20.3064 75.6127 21.1612 75.9817 21.6451C76.6393 22.5644 77.5857 23.016 78.8528 23.016C79.8473 23.016 80.6654 22.6773 81.323 22.016C81.9806 21.3547 82.3014 20.4999 82.3014 19.4838C82.3014 19.0644 82.2373 18.6934 82.125 18.3547C82.0127 18.016 81.8363 17.6934 81.5957 17.4031C81.3551 17.1128 81.0503 16.8386 80.6654 16.5967C80.2804 16.3386 79.8313 16.1128 79.3019 15.8709L77.2649 15.016C74.3777 13.7902 72.9341 11.9999 72.9341 9.64507C72.9341 8.04829 73.5436 6.72571 74.7466 5.64507C75.9496 4.56442 77.4573 4.03217 79.2699 4.03217C81.6919 4.03217 83.6007 5.22571 84.9641 7.59668L84.948 7.58055Z" fill="#161412"/>
<path d="M95.1334 7.41913V25.5965H91.9575V7.41913H87.1134V4.41913H99.9615V7.41913H95.1334Z" fill="#161412"/>
<path d="M113.868 7.41913H105.415V12.5159H113.612V15.5159H105.415V22.5965H113.868V25.5965H102.239V4.41913H113.868V7.41913Z" fill="#161412"/>
<path d="M129.86 20.4676H120.846L118.504 25.6127H115.071L125.497 3.09662L135.554 25.6127H132.074L129.86 20.4676ZM128.577 17.4514L125.449 10.2418L122.177 17.4514H128.577Z" fill="#161412"/>
<path d="M136.886 25.6127L141.313 2.83856L148.547 19.3063L156.037 2.83856L160.015 25.6127H156.759L154.722 12.8224L148.483 26.5805L142.419 12.8063L140.158 25.6127H136.87H136.886Z" fill="#161412"/>
<path d="M0.064209 15C0.064209 18.9193 1.41157 22.2742 4.07421 25.0161C4.07421 25.0161 4.17045 25.1129 4.21858 25.1613C6.68874 27.629 9.75238 29.1129 13.1849 29.371L14.2436 29.4193C18.0932 29.4193 21.3974 28.0322 24.1403 25.2742C26.8831 22.5161 28.2465 19.1935 28.2465 15.3064L0.064209 15Z" fill="#FFEA00"/>
<path d="M14.4521 0.709717C10.5543 0.709717 7.21802 2.06455 4.49122 4.74197C4.49122 4.74197 4.39498 4.83875 4.3629 4.87101C1.89273 7.371 0.41705 10.4516 0.16041 13.9194L0.112289 14.9839C0.112289 18.8549 1.49173 22.1774 4.23458 24.9355C6.97742 27.6936 10.2817 29.0645 14.1473 29.0645L14.4521 0.725846V0.709717Z" fill="#FFEA00"/>
<path d="M46.5802 1.82251C42.6023 1.82251 39.7472 3.0967 37.1487 5.64509C37.1487 5.64509 37.0685 5.72573 37.0204 5.77412C34.6946 8.12896 33.2991 11.0483 33.0585 14.3225L33.0104 15.3225C33.0104 18.9838 34.3096 22.129 36.9241 24.758C39.5226 27.3709 42.6504 28.6773 46.5963 28.6773V1.82251H46.5802Z" fill="#DA2C81"/>
<path d="M21.3332 1.3871C19.3923 0.467742 17.2911 0 15.0455 0C10.9392 0 7.44251 1.41935 4.57134 4.24193C4.57134 4.24193 4.4751 4.33871 4.42698 4.38709C2.00494 6.82258 0.513217 9.80645 0.0961761 13.129H4.49114C4.82798 10.8548 5.82247 8.88709 7.47459 7.25806C9.52771 5.14516 12.0781 4.09677 15.1096 4.09677C18.4941 4.09677 21.3652 5.67742 23.7071 8.82258L26.7868 5.85484C24.9903 3.79032 23.1617 2.29032 21.3011 1.37097L21.3332 1.3871Z" fill="#00A3E3"/>
<path d="M58.4979 4.79034C55.8353 2.16131 52.6914 0.741951 49.0664 0.483887V4.5484C51.5526 4.79034 53.6859 5.80646 55.4503 7.59679C57.5034 9.6613 58.546 12.2097 58.546 15.2581C58.546 18.3065 57.5034 20.8226 55.4182 22.9194C53.6538 24.6774 51.5205 25.6774 49.0664 25.9516V30C52.6914 29.7097 55.8353 28.3065 58.4819 25.7581C61.4493 22.9032 62.941 19.4032 62.941 15.2903C62.941 11.1774 61.4653 7.70969 58.4979 4.79034Z" fill="#82B624"/>
<path d="M16.3287 14.3386V18.4031H23.5628C23.3703 20.4193 22.4079 22.1451 20.6916 23.5967C18.9753 25.0322 17.0345 25.7419 14.8851 25.7419C12.3508 25.7419 10.009 24.7902 7.84357 22.8709C5.67817 20.9515 4.53933 18.5322 4.39497 15.6128H0C0.14436 19.4031 1.57192 22.6935 4.31477 25.4354C7.20197 28.3225 10.6827 29.7741 14.7408 29.7741C18.7989 29.7741 22.3277 28.2741 25.0064 25.2902C26.1934 23.9515 27.0435 22.516 27.5407 20.9838C27.7974 20.1773 27.9738 19.3064 28.1021 18.387C28.2304 17.4193 28.3106 16.3709 28.3106 15.2741V14.3225H16.3287V14.3386Z" fill="#161412"/>
<path d="M46.5802 25.9516C44.2544 25.7097 42.1692 24.7258 40.3246 22.9677C38.1752 20.9355 37.1005 18.3387 37.1005 15.1774C37.1005 12.0161 38.1431 9.62904 40.2123 7.58066C41.9927 5.80646 44.11 4.79034 46.5802 4.5484V0.483887C42.9712 0.75808 39.8273 2.17743 37.1807 4.74195C34.1973 7.62904 32.7056 11.0807 32.7056 15.1129C32.7056 19.6936 34.3416 23.4032 37.6138 26.2258C40.2925 28.5323 43.292 29.7742 46.5802 30V25.9516Z" fill="#161412"/>
</svg>
